<?xml version="1.0" standalone="no"?>
<!DOCTYPE svg PUBLIC "-//W3C//DTD SVG 20010904//EN"
 "http://www.w3.org/TR/2001/REC-SVG-20010904/DTD/svg10.dtd">
<svg version="1.0" xmlns="http://www.w3.org/2000/svg"
 width="3283.000000pt" height="4597.000000pt" viewBox="0 0 3283.000000 4597.000000"
 preserveAspectRatio="xMidYMid meet">

<g transform="translate(0.000000,4597.000000) scale(0.100000,-0.100000)"
fill="#424242" stroke="none">
<path d="M29665 45959 c-137 -17 -324 -59 -464 -105 -436 -143 -749 -394 -979
-784 -149 -252 -273 -635 -332 -1025 -12 -77 -363 -2383 -780 -5125 -417
-2742 -762 -5028 -765 -5080 -13 -176 24 -372 95 -509 55 -106 113 -170 285
-318 673 -576 905 -1024 971 -1875 6 -74 10 -88 24 -88 24 0 3062 518 3067
524 2 2 -12 86 -31 187 -85 441 -115 678 -123 964 -7 237 5 406 43 615 83 456
258 862 508 1175 84 105 256 275 370 367 263 212 551 369 971 530 332 126 306
104 288 250 -132 1099 -491 2195 -1075 3283 -133 246 -293 526 -563 980 -281
473 -396 680 -483 870 -114 249 -163 428 -165 600 -2 127 24 212 102 335 78
124 167 224 360 406 394 373 554 566 686 832 185 372 243 829 169 1332 -60
412 -241 767 -544 1070 -302 303 -679 498 -1115 575 -108 20 -408 28 -520 14z
m582 -308 c197 -41 408 -133 580 -254 115 -81 310 -277 396 -397 87 -122 197
-342 243 -483 73 -227 99 -419 91 -672 -8 -260 -60 -515 -152 -741 l-35 -89 5
72 c29 405 29 624 -1 883 -104 897 -549 1445 -1352 1666 -69 18 -128 37 -131
40 -13 14 260 -6 356 -25z m-1442 -1750 c78 -36 171 -121 208 -189 45 -83 60
-154 55 -266 -3 -92 -7 -108 -40 -178 -47 -99 -110 -166 -201 -214 -72 -39
-73 -39 -187 -39 -111 0 -118 1 -183 34 -277 136 -343 515 -131 750 122 134
320 177 479 102z m-298 -1753 c195 -72 319 -295 285 -515 -40 -252 -267 -427
-500 -384 -137 25 -254 116 -317 245 -182 373 158 792 532 654z m-206 -1817
c106 -52 192 -148 231 -259 26 -73 35 -203 18 -273 -19 -83 -75 -182 -136
-239 -237 -224 -608 -118 -705 202 -28 91 -23 234 10 320 47 123 153 227 273
270 42 15 73 18 148 15 83 -3 104 -8 161 -36z m-303 -1832 c181 -89 285 -292
254 -496 -25 -156 -116 -284 -250 -350 -73 -37 -80 -38 -182 -38 -102 0 -109
1 -182 38 -252 124 -332 449 -171 694 40 60 83 100 149 139 72 42 128 54 227
50 74 -3 98 -8 155 -37z m-234 -1867 c195 -91 301 -313 255 -534 -27 -130
-130 -263 -249 -321 -61 -30 -72 -32 -175 -32 -103 0 -114 2 -178 32 -93 44
-167 121 -215 220 -33 71 -37 87 -40 180 -4 83 0 115 17 171 34 114 101 200
206 267 101 64 263 71 379 17z m-241 -1881 c175 -89 278 -292 249 -491 -55
-371 -470 -526 -729 -273 -180 175 -185 485 -11 669 98 104 175 135 324 131
92 -2 107 -5 167 -36z"/>
<path d="M26830 44182 c-197 -207 -252 -490 -165 -850 39 -162 41 -164 126
-196 125 -46 209 -59 371 -57 l56 1 50 68 c75 101 131 206 176 329 1 0 54 -9
119 -21 82 -16 120 -20 123 -12 5 15 34 202 34 220 0 15 -13 18 -147 37 l-83
11 0 62 c0 82 -24 236 -50 318 l-21 67 -94 31 c-115 36 -254 60 -355 60 l-75
0 -65 -68z"/>
<path d="M26588 42551 c-84 -89 -134 -178 -170 -306 -18 -67 -22 -104 -22
-225 0 -148 17 -258 61 -405 17 -55 22 -62 63 -82 88 -43 198 -66 331 -71
l127 -4 46 58 c61 77 128 192 162 277 23 59 30 68 48 63 83 -19 209 -37 216
-30 8 10 41 226 35 232 -2 2 -54 11 -117 20 l-113 17 3 29 c10 86 -50 398 -79
417 -26 16 -174 58 -258 74 -46 8 -123 15 -171 15 l-88 0 -74 -79z"/>
<path d="M26352 40885 c-94 -81 -181 -226 -219 -365 -14 -50 -18 -102 -18
-220 1 -158 6 -198 52 -372 l26 -97 66 -25 c36 -14 93 -33 126 -41 66 -18 258
-31 298 -21 43 10 174 207 223 336 9 25 20 48 24 53 3 4 57 -2 119 -14 61 -12
115 -19 118 -15 7 7 42 229 36 235 -2 3 -54 12 -116 21 l-112 15 -7 120 c-7
125 -47 312 -70 326 -57 36 -265 82 -423 94 l-80 6 -43 -36z"/>
<path d="M16405 40063 c-27 -2 -111 -13 -185 -23 -131 -19 -13890 -2691
-14060 -2731 -463 -109 -929 -332 -1280 -613 -121 -97 -311 -285 -405 -401
-217 -267 -375 -587 -434 -881 -42 -208 -49 -401 -21 -594 11 -69 3410 -32168
3410 -32194 0 -14 -26 -16 -203 -16 -236 0 -373 -12 -545 -46 -603 -120 -1090
-512 -1227 -989 -56 -196 -56 -384 0 -580 146 -503 668 -884 1328 -970 105
-13 1198 -15 10240 -15 10960 0 10187 -3 10420 51 534 125 972 461 1136 871
58 144 75 236 74 403 0 186 -26 295 -108 460 -126 256 -344 463 -640 609 -247
122 -453 175 -797 202 l-76 6 -6 81 c-4 45 -58 1209 -121 2587 l-115 2505
-1150 10940 c-632 6017 -1152 10969 -1156 11005 l-6 65 503 98 c586 114 629
121 769 114 269 -14 467 -95 630 -257 87 -87 132 -157 163 -255 9 -27 293
-1672 632 -3655 339 -1983 627 -3656 641 -3719 85 -382 268 -759 525 -1081
797 -999 2271 -1513 3829 -1334 2001 229 3683 1508 4076 3099 61 247 77 388
78 660 0 138 -5 274 -12 320 -15 101 -1274 7519 -1277 7522 -1 3 -3277 -608
-3282 -612 -2 -1 283 -1673 632 -3716 681 -3981 656 -3820 620 -3959 -75 -289
-346 -545 -693 -654 -188 -59 -438 -74 -617 -37 -290 60 -514 230 -604 458
-13 35 -236 1311 -641 3679 -341 1995 -630 3670 -641 3723 -27 124 -105 359
-164 492 -152 343 -402 683 -700 952 -637 575 -1512 922 -2515 998 -200 15
-724 6 -920 -15 -205 -23 -435 -62 -985 -170 -264 -52 -481 -93 -483 -91 -2 2
-241 1394 -532 3093 -291 1700 -540 3132 -554 3183 -74 272 -204 499 -410 717
-369 390 -914 638 -1556 707 -123 13 -450 18 -585 8z m-955 -2948 c319 -59
577 -184 764 -371 110 -111 200 -272 230 -414 9 -41 224 -1288 478 -2770 453
-2640 462 -2698 461 -2825 0 -161 -21 -245 -98 -400 -189 -385 -626 -706
-1149 -845 -126 -34 -10852 -2123 -11021 -2147 -223 -31 -560 -17 -760 33
-433 107 -751 356 -860 671 -16 45 -184 1007 -495 2823 l-471 2755 4 135 c5
151 28 243 95 375 99 198 298 413 511 554 196 129 412 227 646 292 84 23
10879 2125 11015 2144 135 20 523 14 650 -10z m15379 -6147 c24 -118 43 -239
40 -242 -5 -4 -2721 -567 -2735 -566 -12 0 -70 278 -60 287 8 9 76 21 80 14 2
-3 7 -25 11 -49 5 -33 10 -42 23 -38 10 3 40 10 67 16 106 22 98 15 90 69 l-6
47 138 29 c76 15 142 28 147 29 5 1 14 -19 19 -44 5 -25 10 -46 11 -47 2 -2
51 9 154 32 22 5 23 9 17 54 l-6 47 138 28 c76 16 142 29 147 30 5 0 13 -19
17 -43 5 -24 10 -45 12 -47 2 -3 42 5 155 31 21 5 22 9 16 53 l-6 48 146 30
c160 33 147 36 161 -34 5 -24 11 -32 23 -28 10 2 33 7 52 11 19 4 52 11 73 16
l38 10 -7 48 -6 48 137 27 c75 15 143 25 151 22 8 -3 14 -18 14 -33 0 -50 7
-53 100 -34 l85 17 -3 50 -3 50 141 29 c151 30 159 29 160 -20 1 -42 10 -44
100 -26 92 19 89 15 79 86 -4 26 0 30 26 36 17 4 35 7 42 8 6 0 16 -22 22 -51z
m-26764 -25002 c360 -1287 659 -2342 664 -2345 5 -3 1074 -238 2376 -521
l2366 -515 -2652 -3 c-1459 -1 -2654 0 -2657 2 -3 4 -743 5567 -756 5691 -3
28 -4 46 -1 40 2 -5 299 -1063 660 -2349z"/>
<path d="M26079 39182 c-55 -58 -88 -104 -117 -164 -64 -131 -77 -198 -76
-378 1 -157 7 -205 54 -379 22 -80 23 -81 69 -102 146 -66 423 -97 472 -53 40
36 150 213 184 296 39 95 22 89 179 59 50 -10 92 -17 94 -16 1 1 9 44 17 96 8
52 17 106 19 120 5 26 4 27 -77 39 -45 6 -99 14 -119 17 l-38 6 0 87 c0 91
-16 192 -45 294 -16 54 -20 59 -63 77 -84 37 -242 69 -362 76 l-115 6 -76 -81z"/>
<path d="M25800 37412 c-55 -56 -87 -100 -118 -162 -66 -132 -77 -188 -77
-380 0 -171 10 -239 56 -397 l21 -71 57 -22 c114 -43 196 -61 311 -67 106 -5
117 -4 141 15 54 43 172 236 210 345 7 20 19 37 26 37 6 0 60 -9 119 -21 58
-11 108 -19 109 -17 5 5 35 195 35 221 0 23 -5 25 -112 38 l-113 14 -6 111
c-4 66 -18 155 -34 222 l-28 112 -53 19 c-118 45 -310 81 -429 81 -37 0 -46
-6 -115 -78z"/>
<path d="M25554 35758 c-147 -154 -214 -326 -214 -554 0 -157 59 -442 98 -472
31 -23 201 -72 295 -83 51 -7 118 -9 148 -5 52 7 56 10 101 69 61 81 130 203
153 272 22 64 16 62 156 35 57 -11 105 -18 107 -16 8 8 39 237 33 241 -4 2
-45 8 -91 15 -154 20 -140 9 -140 103 0 98 -12 175 -42 282 l-23 80 -80 27
c-110 37 -216 57 -338 64 l-102 6 -61 -64z"/>
</g>
</svg>
